<svg width="15" height="16" viewBox="0 0 15 16" fill="none" xmlns="http://www.w3.org/2000/svg">
<path fill-rule="evenodd" clip-rule="evenodd" d="M4.66563 1.16625C5.39875 1.1325 5.6325 1.125 7.5 1.125C9.3675 1.125 9.60125 1.13312 10.3338 1.16625C11.0663 1.19937 11.5663 1.31625 12.0038 1.48563C12.4619 1.65875 12.8775 1.92937 13.2213 2.27938C13.5713 2.6225 13.8413 3.0375 14.0138 3.49625C14.1838 3.93375 14.3 4.43375 14.3338 5.165C14.3675 5.89938 14.375 6.13313 14.375 8C14.375 9.86688 14.3669 10.1013 14.3338 10.8344C14.3006 11.5656 14.1838 12.0656 14.0138 12.5031C13.8412 12.9619 13.5707 13.3776 13.2213 13.7213C12.8775 14.0713 12.4619 14.3413 12.0038 14.5138C11.5663 14.6838 11.0663 14.8 10.335 14.8338C9.60125 14.8675 9.3675 14.875 7.5 14.875C5.6325 14.875 5.39875 14.8669 4.66563 14.8338C3.93438 14.8006 3.43438 14.6838 2.99688 14.5138C2.5381 14.3412 2.12243 14.0707 1.77875 13.7213C1.42911 13.3778 1.15847 12.9624 0.985625 12.5038C0.81625 12.0663 0.7 11.5663 0.66625 10.835C0.6325 10.1006 0.625 9.86688 0.625 8C0.625 6.13313 0.633125 5.89875 0.66625 5.16625C0.699375 4.43375 0.81625 3.93375 0.985625 3.49625C1.15865 3.03759 1.42951 2.62212 1.77938 2.27875C2.12263 1.92919 2.53787 1.65855 2.99625 1.48563C3.43375 1.31625 3.93438 1.2 4.66563 1.16625ZM10.2775 2.40375C9.5525 2.37063 9.335 2.36375 7.49938 2.36375C5.66375 2.36375 5.44625 2.37063 4.72125 2.40375C4.05063 2.43438 3.68688 2.54625 3.44438 2.64063C3.12375 2.76563 2.89438 2.91375 2.65375 3.15438C2.42546 3.37612 2.24988 3.64631 2.14 3.945C2.04563 4.1875 1.93375 4.55125 1.90313 5.22188C1.87 5.94688 1.86313 6.16438 1.86313 8C1.86313 9.83563 1.87 10.0531 1.90313 10.7781C1.93375 11.4488 2.04563 11.8125 2.14 12.055C2.25 12.3531 2.42563 12.6238 2.65375 12.8456C2.87563 13.0738 3.14625 13.2494 3.44438 13.3594C3.68688 13.4538 4.05063 13.5656 4.72125 13.5963C5.44625 13.6294 5.66313 13.6363 7.49938 13.6363C9.33563 13.6363 9.5525 13.6294 10.2775 13.5963C10.9481 13.5656 11.3119 13.4538 11.5544 13.3594C11.875 13.2344 12.1044 13.0863 12.345 12.8456C12.5731 12.6238 12.7488 12.3531 12.8588 12.055C12.9531 11.8125 13.065 11.4488 13.0956 10.7781C13.1288 10.0531 13.1356 9.83563 13.1356 8C13.1356 6.16438 13.1288 5.94688 13.0956 5.22188C13.065 4.55125 12.9531 4.1875 12.8588 3.945C12.7338 3.62438 12.5856 3.395 12.345 3.15438C12.1233 2.92608 11.8531 2.75051 11.5544 2.64063C11.3119 2.54625 10.9481 2.43438 10.2775 2.40375ZM6.62125 10.1194C7.11166 10.3235 7.65774 10.3511 8.16621 10.1973C8.67467 10.0436 9.114 9.71807 9.40913 9.2764C9.70427 8.83473 9.83691 8.30429 9.78441 7.77569C9.7319 7.24709 9.4975 6.75311 9.12125 6.37813C8.8814 6.13842 8.59138 5.95488 8.27208 5.84072C7.95278 5.72655 7.61214 5.6846 7.27469 5.71789C6.93723 5.75117 6.61135 5.85886 6.3205 6.03321C6.02966 6.20755 5.78109 6.44422 5.59269 6.72616C5.40429 7.0081 5.28074 7.32831 5.23095 7.66373C5.18115 7.99915 5.20635 8.34143 5.30471 8.66595C5.40308 8.99046 5.57218 9.28913 5.79983 9.54045C6.02748 9.79177 6.30802 9.98949 6.62125 10.1194ZM5.00125 5.50125C5.32939 5.17311 5.71895 4.91281 6.14769 4.73523C6.57642 4.55764 7.03594 4.46623 7.5 4.46623C7.96406 4.46623 8.42358 4.55764 8.85231 4.73523C9.28105 4.91281 9.67061 5.17311 9.99875 5.50125C10.3269 5.82939 10.5872 6.21895 10.7648 6.64769C10.9424 7.07642 11.0338 7.53594 11.0338 8C11.0338 8.46406 10.9424 8.92358 10.7648 9.35231C10.5872 9.78105 10.3269 10.1706 9.99875 10.4988C9.33604 11.1615 8.43721 11.5338 7.5 11.5338C6.56279 11.5338 5.66396 11.1615 5.00125 10.4988C4.33854 9.83604 3.96623 8.93721 3.96623 8C3.96623 7.06279 4.33854 6.16396 5.00125 5.50125ZM11.8175 4.9925C11.8988 4.91579 11.9639 4.82355 12.0089 4.72123C12.054 4.61892 12.078 4.50861 12.0796 4.39683C12.0813 4.28506 12.0605 4.17409 12.0184 4.07051C11.9764 3.96692 11.914 3.87282 11.835 3.79377C11.7559 3.71473 11.6618 3.65235 11.5582 3.61032C11.4547 3.5683 11.3437 3.54749 11.2319 3.54911C11.1201 3.55074 11.0098 3.57478 10.9075 3.61981C10.8052 3.66484 10.713 3.72993 10.6363 3.81125C10.4871 3.96939 10.4054 4.17945 10.4086 4.39683C10.4117 4.61421 10.4995 4.8218 10.6532 4.97553C10.807 5.12925 11.0145 5.21702 11.2319 5.22019C11.4493 5.22336 11.6594 5.14168 11.8175 4.9925Z" fill="white"/>
</svg>
